<svg id="visual" viewBox="0 0 900 600" width="900" height="600" xmlns="http://www.w3.org/2000/svg" xmlns:xlink="http://www.w3.org/1999/xlink" version="1.1"><path d="M0 73L82 73L82 127L164 127L164 151L245 151L245 61L327 61L327 139L409 139L409 169L491 169L491 115L573 115L573 91L655 91L655 169L736 169L736 109L818 109L818 91L900 91L900 73L900 0L900 0L818 0L818 0L736 0L736 0L655 0L655 0L573 0L573 0L491 0L491 0L409 0L409 0L327 0L327 0L245 0L245 0L164 0L164 0L82 0L82 0L0 0Z" fill="#f6f1f1"></path><path d="M0 181L82 181L82 229L164 229L164 247L245 247L245 181L327 181L327 211L409 211L409 241L491 241L491 175L573 175L573 211L655 211L655 223L736 223L736 223L818 223L818 217L900 217L900 133L900 71L900 89L818 89L818 107L736 107L736 167L655 167L655 89L573 89L573 113L491 113L491 167L409 167L409 137L327 137L327 59L245 59L245 149L164 149L164 125L82 125L82 71L0 71Z" fill="#ebe7e7"></path><path d="M0 379L82 379L82 385L164 385L164 373L245 373L245 421L327 421L327 355L409 355L409 391L491 391L491 421L573 421L573 367L655 367L655 367L736 367L736 409L818 409L818 445L900 445L900 349L900 131L900 215L818 215L818 221L736 221L736 221L655 221L655 209L573 209L573 173L491 173L491 239L409 239L409 209L327 209L327 179L245 179L245 245L164 245L164 227L82 227L82 179L0 179Z" fill="#e1dede"></path><path d="M0 433L82 433L82 457L164 457L164 439L245 439L245 505L327 505L327 409L409 409L409 451L491 451L491 475L573 475L573 445L655 445L655 433L736 433L736 463L818 463L818 487L900 487L900 397L900 347L900 443L818 443L818 407L736 407L736 365L655 365L655 365L573 365L573 419L491 419L491 389L409 389L409 353L327 353L327 419L245 419L245 371L164 371L164 383L82 383L82 377L0 377Z" fill="#d6d5d5"></path><path d="M0 601L82 601L82 601L164 601L164 601L245 601L245 601L327 601L327 601L409 601L409 601L491 601L491 601L573 601L573 601L655 601L655 601L736 601L736 601L818 601L818 601L900 601L900 601L900 395L900 485L818 485L818 461L736 461L736 431L655 431L655 443L573 443L573 473L491 473L491 449L409 449L409 407L327 407L327 503L245 503L245 437L164 437L164 455L82 455L82 431L0 431Z" fill="#cccccc"></path></svg>