<svg id="visual" viewBox="0 0 900 600" width="900" height="600" xmlns="http://www.w3.org/2000/svg" xmlns:xlink="http://www.w3.org/1999/xlink" version="1.1"><path d="M782 600L836 600L836 545L818 545L818 491L782 491L782 436L773 436L773 382L800 382L800 327L764 327L764 273L809 273L809 218L764 218L764 164L845 164L845 109L773 109L773 55L764 55L764 0L900 0L900 55L900 55L900 109L900 109L900 164L900 164L900 218L900 218L900 273L900 273L900 327L900 327L900 382L900 382L900 436L900 436L900 491L900 491L900 545L900 545L900 600L900 600Z" fill="#f6f1f1"></path><path d="M611 600L692 600L692 545L692 545L692 491L620 491L620 436L674 436L674 382L638 382L638 327L647 327L647 273L665 273L665 218L692 218L692 164L647 164L647 109L629 109L629 55L620 55L620 0L765 0L765 55L774 55L774 109L846 109L846 164L765 164L765 218L810 218L810 273L765 273L765 327L801 327L801 382L774 382L774 436L783 436L783 491L819 491L819 545L837 545L837 600L783 600Z" fill="#ebe7e7"></path><path d="M359 600L440 600L440 545L332 545L332 491L467 491L467 436L305 436L305 382L503 382L503 327L476 327L476 273L503 273L503 218L458 218L458 164L467 164L467 109L458 109L458 55L305 55L305 0L621 0L621 55L630 55L630 109L648 109L648 164L693 164L693 218L666 218L666 273L648 273L648 327L639 327L639 382L675 382L675 436L621 436L621 491L693 491L693 545L693 545L693 600L612 600Z" fill="#e1dede"></path><path d="M251 600L287 600L287 545L161 545L161 491L395 491L395 436L170 436L170 382L278 382L278 327L242 327L242 273L395 273L395 218L377 218L377 164L377 164L377 109L278 109L278 55L116 55L116 0L306 0L306 55L459 55L459 109L468 109L468 164L459 164L459 218L504 218L504 273L477 273L477 327L504 327L504 382L306 382L306 436L468 436L468 491L333 491L333 545L441 545L441 600L360 600Z" fill="#d6d5d5"></path><path d="M0 600L0 600L0 545L0 545L0 491L0 491L0 436L0 436L0 382L0 382L0 327L0 327L0 273L0 273L0 218L0 218L0 164L0 164L0 109L0 109L0 55L0 55L0 0L117 0L117 55L279 55L279 109L378 109L378 164L378 164L378 218L396 218L396 273L243 273L243 327L279 327L279 382L171 382L171 436L396 436L396 491L162 491L162 545L288 545L288 600L252 600Z" fill="#cccccc"></path></svg>